<?xml version="1.0" encoding="UTF-8"?>
<svg id="Ebene_2" xmlns="http://www.w3.org/2000/svg" version="1.1" viewBox="0 0 1250 490.7">
  <!-- Generator: Adobe Illustrator 30.0.0, SVG Export Plug-In . SVG Version: 2.1.1 Build 123)  -->
  <defs>
    <style>
      .st0 {
        fill: #a0ddbd;
      }

      .st1 {
        fill: #fff;
      }

      .st2 {
        fill: #e43f3c;
      }
    </style>
  </defs>
  <path class="st0" d="M539.1,171.8c-6.7,0-12.2,5.5-12.2,12.2s.6,4.2,1.6,6l-29.8,40.6c-.3,0-.7,0-1,0-3.7,0-7,1.7-9.3,4.3l-24.5-11.2c-.5-6.3-5.7-11.3-12.2-11.3s-12.2,5.5-12.2,12.2.2,2.3.5,3.4l-29.9,32,7.3,6.8,29.1-31.1c1.6.8,3.3,1.2,5.2,1.2,3.4,0,6.5-1.4,8.8-3.7l25.1,11.5c.9,5.9,5.9,10.4,12.1,10.4s12.2-5.5,12.2-12.2-.9-5.2-2.4-7.2l29.1-39.6c.8.2,1.7.3,2.6.3,6.7,0,12.2-5.5,12.2-12.2s-5.5-12.2-12.2-12.2Z"/>
  <g>
    <rect class="st2" x="39.4" y="92.4" width="306.2" height="219.3" rx="50.8" ry="50.8"/>
    <polygon class="st1" points="256.2 202.1 163.5 255.6 163.5 148.5 256.2 202.1"/>
  </g>
  <path class="st1" d="M600.4,169.1l-13.8,7.1c20.1,73.1-33.9,121.8-89.9,123.3-11-16-21.3-32.7-28.7-47.4l-16.3,1c6.6,13.2,16.6,30,26.5,45.2-22.5-3.7-44-15.5-59.7-36.9-21.9-27.2-22.8-61.2-10.5-90.1,7.8.1,22.9.3,36.9.5-2,9.9-2.8,20.1-2.3,30.5l14-.6c-.5-10.2.4-20.1,2.5-29.7,9.8.1,17,.2,17,.2,9,.1,9.1-14,.1-14,0,0-5.3,0-13-.2,6.3-17.2,17.2-33.4,32.6-49.1,14.3,0,29.3,3.5,44.4,11.5l7-13.2c-71.1-40.7-160.6,18.8-162.2,97.4,1.5,58.6,39.1,105.1,110.5,110.7,74.7,1.2,129-76.2,104.9-146.3ZM474.5,111.8c-12,14.6-20.6,30-25.9,46.1-11.5-.2-24.3-.4-33.4-.5,13.3-21.8,34.4-39.1,59.3-45.6Z"/>
  <path class="st0" d="M615,86.2c-20.1-1.6-52.2,12.4-65.6,29.6-10.4,13.4-10.2,28.3-3.8,44,12-19.9,27.5-36.3,48.3-47.3l-38.1,60.4c14.8,8.9,43.3-4.9,56.4-30.3s14.4-50.3,2.8-56.5Z"/>
  <g>
    <path class="st1" d="M698.7,215.3v35.2h.2l22.4-35.2h19.2l-23.9,37.6,26.6,50.2h-19.9l-18.1-36-6.5,10v26.1h-17.7v-87.8h17.7Z"/>
    <path class="st1" d="M747.1,215.3h17v87.8h-17v-87.8Z"/>
    <path class="st1" d="M776.7,214.3h17v14.5h-17v-14.5ZM776.7,236.9h17v66.2h-17v-66.2Z"/>
    <path class="st1" d="M805.6,236.9h16.2v6.8h.2c4.3-6,9.5-8.5,16.7-8.5s13.4,3.7,15.3,10.6h.2c2.6-7,8.7-10.6,16.7-10.6,11.3,0,16.5,7,16.5,19.8v48.1h-17v-46.2c0-5.5-1.8-8.6-6.6-8.6s-8.9,3.6-8.9,11.3v43.5h-17v-46.2c0-5.5-1.8-8.6-6.6-8.6s-8.9,3.6-8.9,11.3v43.5h-17v-66.2Z"/>
    <path class="st1" d="M898.7,257.2v-1.6c0-15.3,10.5-20.4,23.2-20.4,20.2,0,24,8.4,24,20.3v34.8c0,6.3.5,8.9,2.1,12.8h-16.2c-1.1-2.1-1.6-4.6-2.1-6.9h-.2c-3.9,6.9-8.6,8.6-16.9,8.6-11.8,0-16-10.1-16-18.9,0-12.5,5-17.5,16.7-20.7l9.6-2.6c5-1.4,6.8-3.3,6.8-7.7s-2.1-8.1-7.9-8.1-7.9,3.3-7.9,8.6v1.8h-15.3ZM929.7,270c-2.3,1.8-5.2,2.8-7.3,3.3-6.9,1.5-9.6,4.8-9.6,10.7s1.8,9.2,6.4,9.2,10.5-2.8,10.5-10.2v-13Z"/>
    <path class="st1" d="M681.3,326.3h26.3l12.5,62h.2l12.7-62h26.2v87.8h-16.2v-70.1h-.2l-15.6,70.1h-13.8l-15.6-70.1h-.2v70.1h-16.2v-87.8Z"/>
    <path class="st1" d="M795.4,346.2c20.3-.4,26.1,11.7,26.1,34.8s-6.8,34.8-26.1,34.8c-20.3.4-26.1-11.7-26.1-34.8s6.8-34.8,26.1-34.8ZM795.4,404.2c6.9,0,9.1-6.6,9.1-23.2s-2.2-23.2-9.1-23.2-9.1,9.7-9.1,23.2.7,23.2,9.1,23.2Z"/>
    <path class="st1" d="M830.5,347.9h16.2v7.7h.2c3.6-6.5,9.6-9.5,16.9-9.5,10.7,0,16.9,5.7,16.9,18.8v49.1h-17v-45.6c0-6.8-2.2-9.2-7.3-9.2s-9,3.7-9,10.9v43.9h-17v-66.2Z"/>
    <path class="st1" d="M892.7,325.3h17v14.5h-17v-14.5ZM892.7,347.9h17v66.2h-17v-66.2Z"/>
    <path class="st1" d="M925.2,329h17v18.9h9.8v11.6h-9.8v35.8c0,5.3,1.1,7.3,6,7.3s2.7-.1,3.8-.2v11.8c-3.8.4-7.1.7-11.1.7-13.3,0-15.7-4.2-15.7-17.5v-37.9h-8.6v-11.6h8.6v-18.9Z"/>
    <path class="st1" d="M981.8,346.2c20.3-.4,26.1,11.7,26.1,34.8s-6.8,34.8-26.1,34.8c-20.3.4-26.1-11.7-26.1-34.8s6.8-34.8,26.1-34.8ZM981.8,404.2c6.9,0,9.1-6.6,9.1-23.2s-2.2-23.2-9.1-23.2-9.1,9.7-9.1,23.2.7,23.2,9.1,23.2Z"/>
    <path class="st1" d="M1017,347.9h16.2v8.9h.2c3.4-6.4,8.2-10.6,15.3-10.6s2.1.1,3.1.2v16.2c-1.8-.1-3.4-.2-5.3-.2-5.9,0-12.5,3.1-12.5,11.9v39.7h-17v-66.2Z"/>
    <path class="st1" d="M1058.6,325.3h17v14.5h-17v-14.5ZM1058.6,347.9h17v66.2h-17v-66.2Z"/>
    <path class="st1" d="M1087.5,347.9h16.2v7.7h.2c3.6-6.5,9.6-9.5,16.9-9.5,10.7,0,16.9,5.7,16.9,18.8v49.1h-17v-45.6c0-6.8-2.2-9.2-7.3-9.2s-9,3.7-9,10.9v43.9h-17v-66.2Z"/>
    <path class="st1" d="M1198.5,347.9v62.9c0,17.6-7.7,26-27.6,26s-22.5-6.4-22.5-17.7h16.2c0,2.1.9,3.8,2.6,5,1.6,1.1,3.6,1.8,5.7,1.8,6.9,0,9.3-5,9.3-11.9v-8.7h-.2c-3.4,4.9-8.7,8.1-14.1,8.1-13.4,0-20.3-9.3-20.3-33.5s2.5-33.7,20.8-33.7,10.3,2.2,13.7,9.1h.2v-7.4h16.2ZM1173.1,400.3c7.3,0,9.2-7.7,9.2-18.9,0-16.1-2.1-22.1-8.9-22.1s-8.9,6-8.9,23.9,1.2,17.2,8.5,17.2Z"/>
  </g>
  <g>
    <path class="st1" d="M675.3,85l14.1,41.4h.3l15-41.4h23.4l-27.7,64.9v42.1h-21.6v-42.1l-27.7-64.9h24.3Z"/>
    <path class="st1" d="M752.6,109.3c24.7-.4,31.8,14.2,31.8,42.4s-8.2,42.4-31.8,42.4c-24.7.4-31.8-14.2-31.8-42.4s8.2-42.4,31.8-42.4ZM752.6,180.1c8.4,0,11.1-8.1,11.1-28.3s-2.7-28.3-11.1-28.3-11.1,11.8-11.1,28.3.9,28.3,11.1,28.3Z"/>
    <path class="st1" d="M836.9,182.6h-.3c-4.3,7.9-11.7,11.5-20.5,11.5-13,0-20.5-6.9-20.5-22.9v-59.8h20.7v55.6c0,8.2,2.7,11.2,8.8,11.2s11-4.5,11-13.3v-53.5h20.7v80.7h-19.8v-9.4Z"/>
    <path class="st1" d="M875,88.3h20.7v23.1h12v14.1h-12v43.6c0,6.4,1.3,8.8,7.3,8.8s3.3-.1,4.7-.3v14.4c-4.7.5-8.7.9-13.5.9-16.2,0-19.2-5.1-19.2-21.3v-46.2h-10.5v-14.1h10.5v-23.1Z"/>
    <path class="st1" d="M956.3,182.6h-.3c-4.3,7.9-11.7,11.5-20.5,11.5-13,0-20.5-6.9-20.5-22.9v-59.8h20.7v55.6c0,8.2,2.7,11.2,8.8,11.2s11-4.5,11-13.3v-53.5h20.7v80.7h-19.8v-9.4Z"/>
    <path class="st1" d="M989.9,85h20.7v33.9h.3c4.4-6.4,9.6-9.6,17.4-9.6,16.9,0,24.7,12.4,24.7,42.4s-7.8,42.4-24.7,42.4-13.6-3-18.3-10.6h-.3v8.5h-19.8v-107.1ZM1021.5,178.3c9,0,10.8-9,10.8-26.5s-1.8-26.5-10.8-26.5-11,9-11,26.5,1.8,26.5,11,26.5Z"/>
    <path class="st1" d="M1082.6,154.9v6.4c0,9.6,2.5,18.7,10.2,18.7s9.7-4.9,10.9-15.1h18.6c-.8,18.7-9.5,29.2-29.2,29.2-30,0-31.2-23.1-31.2-43.2s4.2-41.7,32.1-41.7,29.5,16.2,29.5,40.9v4.6h-40.9ZM1103.7,142.6c-.5-12.3-2-19.2-10.5-19.2s-10.7,8.4-10.7,16v3.1h21.1Z"/>
  </g>
</svg>